# xmcd
#
# Track frame offsets:
#	150
#	20560
#	36082
#	49161
#	69496
#	87593
#	100473
#	118479
#	138295
#	153046
#	168677
#
# Disc length: 2525 seconds
#
# Revision: 0
# Processed by: cddbd v1.5.1PL0 Copyright (c) Steve Scherf et al.
# Submitted via: dBpowerAMP V4.0
#
DISCID=9909db0b
DTITLE=Kickstand - To whom it may concern
DYEAR=2004
DGENRE=Rock
TTITLE0=These Fires
TTITLE1=Bitter Angels
TTITLE2=Automatons
TTITLE3=Meltdown
TTITLE4=Landmine
TTITLE5=Vagabond God
TTITLE6=Pedestal of Lies
TTITLE7=Alexander Supertramp
TTITLE8=Pinwheel
TTITLE9=Indigo
TTITLE10=Overdrive
EXTD=
EXTT0=
EXTT1=
EXTT2=
EXTT3=
EXTT4=
EXTT5=
EXTT6=
EXTT7=
EXTT8=
EXTT9=
EXTT10=
PLAYORDER=
